<mxfile host="app.diagrams.net" modified="2023-10-24T13:14:06.824Z" agent="Mozilla/5.0 (Macintosh; Intel Mac OS X 10_15_7) AppleWebKit/537.36 (KHTML, like Gecko) Chrome/118.0.0.0 Safari/537.36" version="22.0.6" etag="mK2c2Zxi57TT2av79nSC" type="github">
  <diagram name="Page-1" id="KBPe70UKzi34YNI0P6eP">
    <mxGraphModel>
      <root>
        <mxCell id="0" />
        <mxCell id="1" parent="0" />
      </root>
    </mxGraphModel>
  </diagram>
</mxfile>
